<svg xmlns="http://www.w3.org/2000/svg" viewBox="0 0 9 9">
  <!-- Brand favicon: white pixel-art "$" glyph on the Sleeplow/Budget green tile -->
  <rect width="9" height="9" rx="1.8" fill="#1d9e75"/>
  <g fill="#ffffff" shape-rendering="crispEdges">
    <rect x="4" y="0" width="1" height="1"/>
    <rect x="3" y="1" width="1" height="1"/>
    <rect x="4" y="1" width="1" height="1"/>
    <rect x="5" y="1" width="1" height="1"/>
    <rect x="2" y="2" width="1" height="1"/>
    <rect x="4" y="2" width="1" height="1"/>
    <rect x="6" y="2" width="1" height="1"/>
    <rect x="2" y="3" width="1" height="1"/>
    <rect x="4" y="3" width="1" height="1"/>
    <rect x="3" y="4" width="1" height="1"/>
    <rect x="4" y="4" width="1" height="1"/>
    <rect x="5" y="4" width="1" height="1"/>
    <rect x="4" y="5" width="1" height="1"/>
    <rect x="6" y="5" width="1" height="1"/>
    <rect x="2" y="6" width="1" height="1"/>
    <rect x="4" y="6" width="1" height="1"/>
    <rect x="6" y="6" width="1" height="1"/>
    <rect x="3" y="7" width="1" height="1"/>
    <rect x="4" y="7" width="1" height="1"/>
    <rect x="5" y="7" width="1" height="1"/>
    <rect x="4" y="8" width="1" height="1"/>
  </g>
</svg>
